<mxfile host="Electron" agent="Mozilla/5.0 (Windows NT 10.0; Win64; x64) AppleWebKit/537.36 (KHTML, like Gecko) draw.io/24.7.17 Chrome/128.0.6613.36 Electron/32.0.1 Safari/537.36" version="24.7.17" pages="4">
  <diagram id="C5RBs43oDa-KdzZeNtuy" name="Diagramme de classe">
    <mxGraphModel dx="1863" dy="656" grid="1" gridSize="10" guides="1" tooltips="1" connect="1" arrows="1" fold="1" page="1" pageScale="1" pageWidth="827" pageHeight="1169" math="0" shadow="0">
      <root>
        <mxCell id="WIyWlLk6GJQsqaUBKTNV-0" />
        <mxCell id="WIyWlLk6GJQsqaUBKTNV-1" parent="WIyWlLk6GJQsqaUBKTNV-0" />
        <mxCell id="zkfFHV4jXpPFQw0GAbJ--0" value="Utilisateur" style="swimlane;fontStyle=2;align=center;verticalAlign=top;childLayout=stackLayout;horizontal=1;startSize=26;horizontalStack=0;resizeParent=1;resizeLast=0;collapsible=1;marginBottom=0;rounded=0;shadow=0;strokeWidth=1;fillColor=#f8cecc;strokeColor=#b85450;" parent="WIyWlLk6GJQsqaUBKTNV-1" vertex="1">
          <mxGeometry x="-40" y="10" width="210" height="150" as="geometry">
            <mxRectangle x="230" y="140" width="160" height="26" as="alternateBounds" />
          </mxGeometry>
        </mxCell>
        <mxCell id="zkfFHV4jXpPFQw0GAbJ--1" value="id_utilisateur" style="text;align=left;verticalAlign=top;spacingLeft=4;spacingRight=4;overflow=hidden;rotatable=0;points=[[0,0.5],[1,0.5]];portConstraint=eastwest;" parent="zkfFHV4jXpPFQw0GAbJ--0" vertex="1">
          <mxGeometry y="26" width="210" height="26" as="geometry" />
        </mxCell>
        <mxCell id="zkfFHV4jXpPFQw0GAbJ--2" value="nom" style="text;align=left;verticalAlign=top;spacingLeft=4;spacingRight=4;overflow=hidden;rotatable=0;points=[[0,0.5],[1,0.5]];portConstraint=eastwest;rounded=0;shadow=0;html=0;" parent="zkfFHV4jXpPFQw0GAbJ--0" vertex="1">
          <mxGeometry y="52" width="210" height="26" as="geometry" />
        </mxCell>
        <mxCell id="uZfNrLArZ7Q7mPxokLxH-0" value="email" style="text;align=left;verticalAlign=top;spacingLeft=4;spacingRight=4;overflow=hidden;rotatable=0;points=[[0,0.5],[1,0.5]];portConstraint=eastwest;rounded=0;shadow=0;html=0;" parent="zkfFHV4jXpPFQw0GAbJ--0" vertex="1">
          <mxGeometry y="78" width="210" height="26" as="geometry" />
        </mxCell>
        <mxCell id="uZfNrLArZ7Q7mPxokLxH-1" value="mot_de_passe" style="text;align=left;verticalAlign=top;spacingLeft=4;spacingRight=4;overflow=hidden;rotatable=0;points=[[0,0.5],[1,0.5]];portConstraint=eastwest;rounded=0;shadow=0;html=0;" parent="zkfFHV4jXpPFQw0GAbJ--0" vertex="1">
          <mxGeometry y="104" width="210" height="26" as="geometry" />
        </mxCell>
        <mxCell id="zkfFHV4jXpPFQw0GAbJ--6" value="ForumCommun" style="swimlane;fontStyle=0;align=center;verticalAlign=top;childLayout=stackLayout;horizontal=1;startSize=26;horizontalStack=0;resizeParent=1;resizeLast=0;collapsible=1;marginBottom=0;rounded=0;shadow=0;strokeWidth=1;fillColor=#d5e8d4;strokeColor=#82b366;" parent="WIyWlLk6GJQsqaUBKTNV-1" vertex="1">
          <mxGeometry x="-290" y="272" width="160" height="138" as="geometry">
            <mxRectangle x="130" y="380" width="160" height="26" as="alternateBounds" />
          </mxGeometry>
        </mxCell>
        <mxCell id="zkfFHV4jXpPFQw0GAbJ--7" value="id_forum" style="text;align=left;verticalAlign=top;spacingLeft=4;spacingRight=4;overflow=hidden;rotatable=0;points=[[0,0.5],[1,0.5]];portConstraint=eastwest;" parent="zkfFHV4jXpPFQw0GAbJ--6" vertex="1">
          <mxGeometry y="26" width="160" height="26" as="geometry" />
        </mxCell>
        <mxCell id="zkfFHV4jXpPFQw0GAbJ--8" value="participants" style="text;align=left;verticalAlign=top;spacingLeft=4;spacingRight=4;overflow=hidden;rotatable=0;points=[[0,0.5],[1,0.5]];portConstraint=eastwest;rounded=0;shadow=0;html=0;" parent="zkfFHV4jXpPFQw0GAbJ--6" vertex="1">
          <mxGeometry y="52" width="160" height="26" as="geometry" />
        </mxCell>
        <mxCell id="zkfFHV4jXpPFQw0GAbJ--13" value="Message" style="swimlane;fontStyle=0;align=center;verticalAlign=top;childLayout=stackLayout;horizontal=1;startSize=26;horizontalStack=0;resizeParent=1;resizeLast=0;collapsible=1;marginBottom=0;rounded=0;shadow=0;strokeWidth=1;fillColor=#d5e8d4;strokeColor=#82b366;" parent="WIyWlLk6GJQsqaUBKTNV-1" vertex="1">
          <mxGeometry x="-380" y="40" width="230" height="110" as="geometry">
            <mxRectangle x="340" y="380" width="170" height="26" as="alternateBounds" />
          </mxGeometry>
        </mxCell>
        <mxCell id="zkfFHV4jXpPFQw0GAbJ--14" value="id_message" style="text;align=left;verticalAlign=top;spacingLeft=4;spacingRight=4;overflow=hidden;rotatable=0;points=[[0,0.5],[1,0.5]];portConstraint=eastwest;" parent="zkfFHV4jXpPFQw0GAbJ--13" vertex="1">
          <mxGeometry y="26" width="230" height="26" as="geometry" />
        </mxCell>
        <mxCell id="uZfNrLArZ7Q7mPxokLxH-6" value="contenu" style="text;align=left;verticalAlign=top;spacingLeft=4;spacingRight=4;overflow=hidden;rotatable=0;points=[[0,0.5],[1,0.5]];portConstraint=eastwest;" parent="zkfFHV4jXpPFQw0GAbJ--13" vertex="1">
          <mxGeometry y="52" width="230" height="26" as="geometry" />
        </mxCell>
        <mxCell id="uZfNrLArZ7Q7mPxokLxH-7" value="auteur " style="text;align=left;verticalAlign=top;spacingLeft=4;spacingRight=4;overflow=hidden;rotatable=0;points=[[0,0.5],[1,0.5]];portConstraint=eastwest;" parent="zkfFHV4jXpPFQw0GAbJ--13" vertex="1">
          <mxGeometry y="78" width="230" height="26" as="geometry" />
        </mxCell>
        <mxCell id="zkfFHV4jXpPFQw0GAbJ--17" value="Document" style="swimlane;fontStyle=0;align=center;verticalAlign=top;childLayout=stackLayout;horizontal=1;startSize=26;horizontalStack=0;resizeParent=1;resizeLast=0;collapsible=1;marginBottom=0;rounded=0;shadow=0;strokeWidth=1;fillColor=#d5e8d4;strokeColor=#82b366;" parent="WIyWlLk6GJQsqaUBKTNV-1" vertex="1">
          <mxGeometry x="5" y="251" width="250" height="180" as="geometry">
            <mxRectangle x="550" y="140" width="160" height="26" as="alternateBounds" />
          </mxGeometry>
        </mxCell>
        <mxCell id="zkfFHV4jXpPFQw0GAbJ--18" value="idClient" style="text;align=left;verticalAlign=top;spacingLeft=4;spacingRight=4;overflow=hidden;rotatable=0;points=[[0,0.5],[1,0.5]];portConstraint=eastwest;" parent="zkfFHV4jXpPFQw0GAbJ--17" vertex="1">
          <mxGeometry y="26" width="250" height="26" as="geometry" />
        </mxCell>
        <mxCell id="zkfFHV4jXpPFQw0GAbJ--19" value="nom" style="text;align=left;verticalAlign=top;spacingLeft=4;spacingRight=4;overflow=hidden;rotatable=0;points=[[0,0.5],[1,0.5]];portConstraint=eastwest;rounded=0;shadow=0;html=0;" parent="zkfFHV4jXpPFQw0GAbJ--17" vertex="1">
          <mxGeometry y="52" width="250" height="26" as="geometry" />
        </mxCell>
        <mxCell id="zkfFHV4jXpPFQw0GAbJ--20" value="email" style="text;align=left;verticalAlign=top;spacingLeft=4;spacingRight=4;overflow=hidden;rotatable=0;points=[[0,0.5],[1,0.5]];portConstraint=eastwest;rounded=0;shadow=0;html=0;" parent="zkfFHV4jXpPFQw0GAbJ--17" vertex="1">
          <mxGeometry y="78" width="250" height="26" as="geometry" />
        </mxCell>
        <mxCell id="zkfFHV4jXpPFQw0GAbJ--21" value="téléphone" style="text;align=left;verticalAlign=top;spacingLeft=4;spacingRight=4;overflow=hidden;rotatable=0;points=[[0,0.5],[1,0.5]];portConstraint=eastwest;rounded=0;shadow=0;html=0;" parent="zkfFHV4jXpPFQw0GAbJ--17" vertex="1">
          <mxGeometry y="104" width="250" height="26" as="geometry" />
        </mxCell>
        <mxCell id="zkfFHV4jXpPFQw0GAbJ--22" value="historiqueTransactions" style="text;align=left;verticalAlign=top;spacingLeft=4;spacingRight=4;overflow=hidden;rotatable=0;points=[[0,0.5],[1,0.5]];portConstraint=eastwest;rounded=0;shadow=0;html=0;" parent="zkfFHV4jXpPFQw0GAbJ--17" vertex="1">
          <mxGeometry y="130" width="250" height="26" as="geometry" />
        </mxCell>
        <mxCell id="uZfNrLArZ7Q7mPxokLxH-9" value="Réunion" style="swimlane;fontStyle=2;align=center;verticalAlign=top;childLayout=stackLayout;horizontal=1;startSize=26;horizontalStack=0;resizeParent=1;resizeLast=0;collapsible=1;marginBottom=0;rounded=0;shadow=0;strokeWidth=1;fillColor=#d5e8d4;strokeColor=#82b366;" parent="WIyWlLk6GJQsqaUBKTNV-1" vertex="1">
          <mxGeometry x="290" y="135" width="210" height="90" as="geometry">
            <mxRectangle x="230" y="140" width="160" height="26" as="alternateBounds" />
          </mxGeometry>
        </mxCell>
        <mxCell id="uZfNrLArZ7Q7mPxokLxH-10" value="id_departement " style="text;align=left;verticalAlign=top;spacingLeft=4;spacingRight=4;overflow=hidden;rotatable=0;points=[[0,0.5],[1,0.5]];portConstraint=eastwest;" parent="uZfNrLArZ7Q7mPxokLxH-9" vertex="1">
          <mxGeometry y="26" width="210" height="26" as="geometry" />
        </mxCell>
        <mxCell id="uZfNrLArZ7Q7mPxokLxH-11" value="nom " style="text;align=left;verticalAlign=top;spacingLeft=4;spacingRight=4;overflow=hidden;rotatable=0;points=[[0,0.5],[1,0.5]];portConstraint=eastwest;rounded=0;shadow=0;html=0;" parent="uZfNrLArZ7Q7mPxokLxH-9" vertex="1">
          <mxGeometry y="52" width="210" height="26" as="geometry" />
        </mxCell>
        <mxCell id="uZfNrLArZ7Q7mPxokLxH-36" value="1 n" style="text;html=1;align=center;verticalAlign=middle;whiteSpace=wrap;rounded=0;" parent="WIyWlLk6GJQsqaUBKTNV-1" vertex="1">
          <mxGeometry x="-150" y="60" width="40" height="20" as="geometry" />
        </mxCell>
        <mxCell id="uZfNrLArZ7Q7mPxokLxH-43" value="0-n" style="text;html=1;align=center;verticalAlign=middle;whiteSpace=wrap;rounded=0;" parent="WIyWlLk6GJQsqaUBKTNV-1" vertex="1">
          <mxGeometry x="70" y="231" width="50" height="20" as="geometry" />
        </mxCell>
        <mxCell id="uZfNrLArZ7Q7mPxokLxH-44" value="1 n" style="text;html=1;align=center;verticalAlign=middle;whiteSpace=wrap;rounded=0;" parent="WIyWlLk6GJQsqaUBKTNV-1" vertex="1">
          <mxGeometry x="255" y="135" width="40" height="10" as="geometry" />
        </mxCell>
        <mxCell id="cXEQOt6a8aEtaJOrVF9d-2" value="" style="endArrow=none;dashed=1;html=1;rounded=0;entryX=1;entryY=0.5;entryDx=0;entryDy=0;exitX=0;exitY=0.5;exitDx=0;exitDy=0;" parent="WIyWlLk6GJQsqaUBKTNV-1" source="uZfNrLArZ7Q7mPxokLxH-0" target="zkfFHV4jXpPFQw0GAbJ--8" edge="1">
          <mxGeometry width="50" height="50" relative="1" as="geometry">
            <mxPoint x="178" y="370" as="sourcePoint" />
            <mxPoint x="123" y="250" as="targetPoint" />
          </mxGeometry>
        </mxCell>
        <mxCell id="cXEQOt6a8aEtaJOrVF9d-3" value="&amp;nbsp;0 1" style="text;html=1;align=center;verticalAlign=middle;whiteSpace=wrap;rounded=0;" parent="WIyWlLk6GJQsqaUBKTNV-1" vertex="1">
          <mxGeometry x="-80" y="50" width="40" height="20" as="geometry" />
        </mxCell>
        <mxCell id="cXEQOt6a8aEtaJOrVF9d-4" value="0 n" style="text;html=1;align=center;verticalAlign=middle;whiteSpace=wrap;rounded=0;" parent="WIyWlLk6GJQsqaUBKTNV-1" vertex="1">
          <mxGeometry x="-200" y="251" width="40" height="18" as="geometry" />
        </mxCell>
        <mxCell id="CeAYoajpDWhsyR2SayL2-1" value="" style="endArrow=none;dashed=1;html=1;rounded=0;entryX=0;entryY=0.5;entryDx=0;entryDy=0;exitX=0.999;exitY=0.215;exitDx=0;exitDy=0;exitPerimeter=0;" edge="1" parent="WIyWlLk6GJQsqaUBKTNV-1" source="uZfNrLArZ7Q7mPxokLxH-0" target="uZfNrLArZ7Q7mPxokLxH-10">
          <mxGeometry width="50" height="50" relative="1" as="geometry">
            <mxPoint x="-30" y="111" as="sourcePoint" />
            <mxPoint x="-120" y="347" as="targetPoint" />
          </mxGeometry>
        </mxCell>
        <mxCell id="CeAYoajpDWhsyR2SayL2-2" value="" style="endArrow=none;dashed=1;html=1;rounded=0;entryX=0.5;entryY=0;entryDx=0;entryDy=0;exitX=0.5;exitY=1;exitDx=0;exitDy=0;" edge="1" parent="WIyWlLk6GJQsqaUBKTNV-1" source="zkfFHV4jXpPFQw0GAbJ--13" target="zkfFHV4jXpPFQw0GAbJ--6">
          <mxGeometry width="50" height="50" relative="1" as="geometry">
            <mxPoint x="-30" y="111" as="sourcePoint" />
            <mxPoint x="-120" y="347" as="targetPoint" />
          </mxGeometry>
        </mxCell>
        <mxCell id="CeAYoajpDWhsyR2SayL2-3" value="" style="endArrow=none;dashed=1;html=1;rounded=0;entryX=0;entryY=0.5;entryDx=0;entryDy=0;" edge="1" parent="WIyWlLk6GJQsqaUBKTNV-1" target="zkfFHV4jXpPFQw0GAbJ--20">
          <mxGeometry width="50" height="50" relative="1" as="geometry">
            <mxPoint x="-130" y="360" as="sourcePoint" />
            <mxPoint x="-200" y="282" as="targetPoint" />
          </mxGeometry>
        </mxCell>
        <mxCell id="CeAYoajpDWhsyR2SayL2-4" value="" style="endArrow=none;dashed=1;html=1;rounded=0;entryX=0.25;entryY=0;entryDx=0;entryDy=0;exitX=0.5;exitY=1;exitDx=0;exitDy=0;" edge="1" parent="WIyWlLk6GJQsqaUBKTNV-1" source="zkfFHV4jXpPFQw0GAbJ--0" target="zkfFHV4jXpPFQw0GAbJ--17">
          <mxGeometry width="50" height="50" relative="1" as="geometry">
            <mxPoint x="180" y="104" as="sourcePoint" />
            <mxPoint x="300" y="184" as="targetPoint" />
          </mxGeometry>
        </mxCell>
        <mxCell id="CeAYoajpDWhsyR2SayL2-5" value="" style="endArrow=none;dashed=1;html=1;rounded=0;entryX=1;entryY=0.5;entryDx=0;entryDy=0;exitX=0;exitY=0.5;exitDx=0;exitDy=0;" edge="1" parent="WIyWlLk6GJQsqaUBKTNV-1" source="zkfFHV4jXpPFQw0GAbJ--2" target="zkfFHV4jXpPFQw0GAbJ--14">
          <mxGeometry width="50" height="50" relative="1" as="geometry">
            <mxPoint x="-255" y="160" as="sourcePoint" />
            <mxPoint x="-200" y="282" as="targetPoint" />
          </mxGeometry>
        </mxCell>
        <mxCell id="Ir6T_NFDBEMk62_IUUK--0" value="1-n" style="text;html=1;align=center;verticalAlign=middle;whiteSpace=wrap;rounded=0;" vertex="1" parent="WIyWlLk6GJQsqaUBKTNV-1">
          <mxGeometry x="-60" y="160" width="50" height="20" as="geometry" />
        </mxCell>
        <mxCell id="Ir6T_NFDBEMk62_IUUK--1" value="1 n" style="text;html=1;align=center;verticalAlign=middle;whiteSpace=wrap;rounded=0;" vertex="1" parent="WIyWlLk6GJQsqaUBKTNV-1">
          <mxGeometry x="170" y="75" width="50" height="20" as="geometry" />
        </mxCell>
        <mxCell id="Ir6T_NFDBEMk62_IUUK--2" value="&amp;nbsp;0 n" style="text;html=1;align=center;verticalAlign=middle;whiteSpace=wrap;rounded=0;" vertex="1" parent="WIyWlLk6GJQsqaUBKTNV-1">
          <mxGeometry x="-250" y="150" width="40" height="18" as="geometry" />
        </mxCell>
        <mxCell id="Ir6T_NFDBEMk62_IUUK--3" value="1-n" style="text;html=1;align=center;verticalAlign=middle;whiteSpace=wrap;rounded=0;" vertex="1" parent="WIyWlLk6GJQsqaUBKTNV-1">
          <mxGeometry x="60" y="160" width="50" height="20" as="geometry" />
        </mxCell>
        <mxCell id="Ir6T_NFDBEMk62_IUUK--9" value="0 n" style="text;html=1;align=center;verticalAlign=middle;whiteSpace=wrap;rounded=0;" vertex="1" parent="WIyWlLk6GJQsqaUBKTNV-1">
          <mxGeometry x="-130" y="320" width="40" height="18" as="geometry" />
        </mxCell>
        <mxCell id="Ir6T_NFDBEMk62_IUUK--10" value="0 n" style="text;html=1;align=center;verticalAlign=middle;whiteSpace=wrap;rounded=0;" vertex="1" parent="WIyWlLk6GJQsqaUBKTNV-1">
          <mxGeometry x="-130" y="370" width="40" height="18" as="geometry" />
        </mxCell>
        <mxCell id="Ir6T_NFDBEMk62_IUUK--11" value="0 n" style="text;html=1;align=center;verticalAlign=middle;whiteSpace=wrap;rounded=0;" vertex="1" parent="WIyWlLk6GJQsqaUBKTNV-1">
          <mxGeometry x="-40" y="360" width="40" height="18" as="geometry" />
        </mxCell>
      </root>
    </mxGraphModel>
  </diagram>
  <diagram id="SEfRRDJJPkY8yML4w7Qj" name="Diagramme de cas d&#39;utilisation">
    <mxGraphModel dx="1080" dy="1337" grid="1" gridSize="10" guides="1" tooltips="1" connect="1" arrows="1" fold="1" page="0" pageScale="1" pageWidth="827" pageHeight="1169" math="0" shadow="0">
      <root>
        <mxCell id="0" />
        <mxCell id="1" parent="0" />
        <mxCell id="YNoSgNqK4q57QaAydhIL-3" value="Dirigeant d&#39;Agence" style="shape=umlActor;verticalLabelPosition=bottom;verticalAlign=top;html=1;outlineConnect=0;" parent="1" vertex="1">
          <mxGeometry x="520" y="-30" width="30" height="60" as="geometry" />
        </mxCell>
        <mxCell id="YNoSgNqK4q57QaAydhIL-5" value="Connexion/Inscription" style="ellipse;whiteSpace=wrap;html=1;fillColor=#ffe6cc;strokeColor=#d79b00;" parent="1" vertex="1">
          <mxGeometry x="630" y="-40" width="150" height="80" as="geometry" />
        </mxCell>
        <mxCell id="YNoSgNqK4q57QaAydhIL-6" value="Accéder au Forum Commun" style="ellipse;whiteSpace=wrap;html=1;fillColor=#dae8fc;strokeColor=#6c8ebf;" parent="1" vertex="1">
          <mxGeometry x="850" y="-130" width="120" height="80" as="geometry" />
        </mxCell>
        <mxCell id="YNoSgNqK4q57QaAydhIL-10" value="Suivre l’avancement des projets" style="ellipse;whiteSpace=wrap;html=1;" parent="1" vertex="1">
          <mxGeometry x="690" y="480" width="120" height="80" as="geometry" />
        </mxCell>
        <mxCell id="-58fFWYoHNiliS0GHuqz-1" value="" style="endArrow=none;html=1;rounded=0;fontSize=12;startSize=8;endSize=8;curved=1;entryX=0;entryY=0.5;entryDx=0;entryDy=0;" parent="1" source="YNoSgNqK4q57QaAydhIL-3" target="YNoSgNqK4q57QaAydhIL-5" edge="1">
          <mxGeometry width="50" height="50" relative="1" as="geometry">
            <mxPoint x="880" y="130" as="sourcePoint" />
            <mxPoint x="930" y="80" as="targetPoint" />
          </mxGeometry>
        </mxCell>
        <mxCell id="-58fFWYoHNiliS0GHuqz-6" value="" style="endArrow=none;html=1;rounded=0;fontSize=12;startSize=8;endSize=8;curved=1;" parent="1" source="YNoSgNqK4q57QaAydhIL-1" edge="1">
          <mxGeometry width="50" height="50" relative="1" as="geometry">
            <mxPoint x="560" y="226" as="sourcePoint" />
            <mxPoint x="710.1218550281828" y="382.54800616901343" as="targetPoint" />
          </mxGeometry>
        </mxCell>
        <mxCell id="OQb0-PnsXki0fb07ua7f-1" value="Publier un Message" style="ellipse;whiteSpace=wrap;html=1;fillColor=#d5e8d4;strokeColor=#82b366;" vertex="1" parent="1">
          <mxGeometry x="980" y="-290" width="120" height="80" as="geometry" />
        </mxCell>
        <mxCell id="OQb0-PnsXki0fb07ua7f-2" value="Partager des Documents" style="ellipse;whiteSpace=wrap;html=1;fillColor=#d5e8d4;strokeColor=#82b366;" vertex="1" parent="1">
          <mxGeometry x="1060" y="-50" width="120" height="80" as="geometry" />
        </mxCell>
        <mxCell id="OQb0-PnsXki0fb07ua7f-3" value="Planifier des Réunions" style="ellipse;whiteSpace=wrap;html=1;fillColor=#d5e8d4;strokeColor=#82b366;" vertex="1" parent="1">
          <mxGeometry x="1080" y="-170" width="120" height="80" as="geometry" />
        </mxCell>
        <mxCell id="OQb0-PnsXki0fb07ua7f-4" value="Notifications" style="ellipse;whiteSpace=wrap;html=1;fillColor=#d5e8d4;strokeColor=#82b366;" vertex="1" parent="1">
          <mxGeometry x="960" y="30" width="120" height="80" as="geometry" />
        </mxCell>
        <mxCell id="OQb0-PnsXki0fb07ua7f-7" value="" style="endArrow=none;html=1;rounded=0;fontSize=12;startSize=8;endSize=8;curved=1;entryX=0;entryY=0.5;entryDx=0;entryDy=0;exitX=1;exitY=0;exitDx=0;exitDy=0;" edge="1" parent="1" source="YNoSgNqK4q57QaAydhIL-5" target="YNoSgNqK4q57QaAydhIL-6">
          <mxGeometry width="50" height="50" relative="1" as="geometry">
            <mxPoint x="680" y="-30" as="sourcePoint" />
            <mxPoint x="730" y="-80" as="targetPoint" />
          </mxGeometry>
        </mxCell>
        <mxCell id="OQb0-PnsXki0fb07ua7f-8" value="" style="endArrow=none;html=1;rounded=0;fontSize=12;startSize=8;endSize=8;curved=1;entryX=0.233;entryY=0.873;entryDx=0;entryDy=0;exitX=0.688;exitY=0.098;exitDx=0;exitDy=0;entryPerimeter=0;exitPerimeter=0;" edge="1" parent="1" source="YNoSgNqK4q57QaAydhIL-6" target="OQb0-PnsXki0fb07ua7f-1">
          <mxGeometry width="50" height="50" relative="1" as="geometry">
            <mxPoint x="808" y="-18" as="sourcePoint" />
            <mxPoint x="860" y="-80" as="targetPoint" />
          </mxGeometry>
        </mxCell>
        <mxCell id="OQb0-PnsXki0fb07ua7f-9" value="" style="endArrow=none;html=1;rounded=0;fontSize=12;startSize=8;endSize=8;curved=1;exitX=1;exitY=0.5;exitDx=0;exitDy=0;" edge="1" parent="1" source="YNoSgNqK4q57QaAydhIL-6" target="OQb0-PnsXki0fb07ua7f-3">
          <mxGeometry width="50" height="50" relative="1" as="geometry">
            <mxPoint x="943" y="-112" as="sourcePoint" />
            <mxPoint x="978" y="-160" as="targetPoint" />
          </mxGeometry>
        </mxCell>
        <mxCell id="OQb0-PnsXki0fb07ua7f-10" value="" style="endArrow=none;html=1;rounded=0;fontSize=12;startSize=8;endSize=8;curved=1;exitX=1;exitY=1;exitDx=0;exitDy=0;entryX=0;entryY=0;entryDx=0;entryDy=0;" edge="1" parent="1" source="YNoSgNqK4q57QaAydhIL-6" target="OQb0-PnsXki0fb07ua7f-2">
          <mxGeometry width="50" height="50" relative="1" as="geometry">
            <mxPoint x="980" y="-80" as="sourcePoint" />
            <mxPoint x="1013" y="-87" as="targetPoint" />
          </mxGeometry>
        </mxCell>
        <mxCell id="OQb0-PnsXki0fb07ua7f-11" value="" style="endArrow=none;html=1;rounded=0;fontSize=12;startSize=8;endSize=8;curved=1;exitX=0.5;exitY=1;exitDx=0;exitDy=0;entryX=0.5;entryY=0;entryDx=0;entryDy=0;" edge="1" parent="1" source="YNoSgNqK4q57QaAydhIL-6" target="OQb0-PnsXki0fb07ua7f-4">
          <mxGeometry width="50" height="50" relative="1" as="geometry">
            <mxPoint x="962" y="-52" as="sourcePoint" />
            <mxPoint x="1038" y="-48" as="targetPoint" />
          </mxGeometry>
        </mxCell>
      </root>
    </mxGraphModel>
  </diagram>
  <diagram id="IbNrN6rH3HWJeN_fhQJl" name="Diagramme d&#39;activité">
    <mxGraphModel dx="1619" dy="1172" grid="1" gridSize="10" guides="1" tooltips="1" connect="1" arrows="1" fold="1" page="0" pageScale="1" pageWidth="827" pageHeight="1169" math="0" shadow="0">
      <root>
        <mxCell id="0" />
        <mxCell id="1" parent="0" />
        <mxCell id="Dx_g4YQoMk166fqY_A1X-1" value="Thread 1" style="swimlane;whiteSpace=wrap" parent="1" vertex="1">
          <mxGeometry x="-290" y="-320" width="280" height="570" as="geometry" />
        </mxCell>
        <mxCell id="Dx_g4YQoMk166fqY_A1X-2" style="edgeStyle=none;curved=1;rounded=0;orthogonalLoop=1;jettySize=auto;html=1;exitX=0;exitY=1;exitDx=0;exitDy=0;entryX=0.5;entryY=0;entryDx=0;entryDy=0;fontSize=12;startSize=8;endSize=8;" parent="Dx_g4YQoMk166fqY_A1X-1" source="Dx_g4YQoMk166fqY_A1X-3" target="Dx_g4YQoMk166fqY_A1X-5" edge="1">
          <mxGeometry relative="1" as="geometry" />
        </mxCell>
        <mxCell id="Dx_g4YQoMk166fqY_A1X-3" value="" style="ellipse;shape=startState;fillColor=#000000;strokeColor=#ff0000;" parent="Dx_g4YQoMk166fqY_A1X-1" vertex="1">
          <mxGeometry x="97.25" y="40" width="30" height="30" as="geometry" />
        </mxCell>
        <mxCell id="Dx_g4YQoMk166fqY_A1X-4" style="edgeStyle=none;curved=1;rounded=0;orthogonalLoop=1;jettySize=auto;html=1;exitX=0.5;exitY=1;exitDx=0;exitDy=0;fontSize=12;startSize=8;endSize=8;" parent="Dx_g4YQoMk166fqY_A1X-1" source="Dx_g4YQoMk166fqY_A1X-5" target="Dx_g4YQoMk166fqY_A1X-7" edge="1">
          <mxGeometry relative="1" as="geometry" />
        </mxCell>
        <mxCell id="Dx_g4YQoMk166fqY_A1X-5" value="L&#39;utilisateur accède au système" style="" parent="Dx_g4YQoMk166fqY_A1X-1" vertex="1">
          <mxGeometry y="132" width="224.5" height="48" as="geometry" />
        </mxCell>
        <mxCell id="Dx_g4YQoMk166fqY_A1X-7" value="l&#39;utilisateur accède au tableau de bords" style="fillColor=#f8cecc;strokeColor=#b85450;" parent="Dx_g4YQoMk166fqY_A1X-1" vertex="1">
          <mxGeometry x="15.5" y="265" width="230" height="40" as="geometry" />
        </mxCell>
        <mxCell id="Dx_g4YQoMk166fqY_A1X-11" value="Thread 2" style="swimlane;whiteSpace=wrap" parent="1" vertex="1">
          <mxGeometry x="-10" y="-320" width="480" height="572" as="geometry" />
        </mxCell>
        <mxCell id="Dx_g4YQoMk166fqY_A1X-12" value="Partage de Documents" style="fillColor=#d5e8d4;strokeColor=#82b366;" parent="Dx_g4YQoMk166fqY_A1X-11" vertex="1">
          <mxGeometry x="70" y="280" width="150" height="55" as="geometry" />
        </mxCell>
        <mxCell id="Dx_g4YQoMk166fqY_A1X-8" value="Initiation des actions " style="fillColor=#d5e8d4;strokeColor=#82b366;" parent="Dx_g4YQoMk166fqY_A1X-11" vertex="1">
          <mxGeometry x="30" y="50" width="230" height="55" as="geometry" />
        </mxCell>
        <mxCell id="0tgganqTkuuFNSE_xB90-1" value="Chat en Temps Réel" style="fillColor=#d5e8d4;strokeColor=#82b366;" vertex="1" parent="Dx_g4YQoMk166fqY_A1X-11">
          <mxGeometry x="60" y="190" width="150" height="55" as="geometry" />
        </mxCell>
        <mxCell id="0tgganqTkuuFNSE_xB90-2" value="Planification de Réunion" style="fillColor=#d5e8d4;strokeColor=#82b366;" vertex="1" parent="Dx_g4YQoMk166fqY_A1X-11">
          <mxGeometry x="80" y="370" width="150" height="55" as="geometry" />
        </mxCell>
        <mxCell id="Dx_g4YQoMk166fqY_A1X-44" value="" style="ellipse;shape=endState;fillColor=#000000;strokeColor=#ff0000" parent="Dx_g4YQoMk166fqY_A1X-11" vertex="1">
          <mxGeometry x="140" y="490" width="30" height="30" as="geometry" />
        </mxCell>
        <mxCell id="0tgganqTkuuFNSE_xB90-8" style="edgeStyle=none;curved=1;rounded=0;orthogonalLoop=1;jettySize=auto;html=1;exitX=0.5;exitY=1;exitDx=0;exitDy=0;fontSize=12;startSize=8;endSize=8;entryX=0.5;entryY=0;entryDx=0;entryDy=0;" edge="1" parent="Dx_g4YQoMk166fqY_A1X-11" source="0tgganqTkuuFNSE_xB90-2" target="Dx_g4YQoMk166fqY_A1X-44">
          <mxGeometry relative="1" as="geometry">
            <mxPoint x="-24" y="315" as="sourcePoint" />
            <mxPoint x="90" y="408" as="targetPoint" />
          </mxGeometry>
        </mxCell>
        <mxCell id="0tgganqTkuuFNSE_xB90-3" style="edgeStyle=none;curved=1;rounded=0;orthogonalLoop=1;jettySize=auto;html=1;exitX=0.628;exitY=0.125;exitDx=0;exitDy=0;fontSize=12;startSize=8;endSize=8;entryX=0;entryY=0.75;entryDx=0;entryDy=0;exitPerimeter=0;" edge="1" parent="1" source="Dx_g4YQoMk166fqY_A1X-7" target="Dx_g4YQoMk166fqY_A1X-8">
          <mxGeometry relative="1" as="geometry">
            <mxPoint x="-149" y="-130" as="sourcePoint" />
            <mxPoint x="-149" y="-45" as="targetPoint" />
          </mxGeometry>
        </mxCell>
        <mxCell id="0tgganqTkuuFNSE_xB90-4" style="edgeStyle=none;curved=1;rounded=0;orthogonalLoop=1;jettySize=auto;html=1;exitX=0.79;exitY=0.075;exitDx=0;exitDy=0;fontSize=12;startSize=8;endSize=8;entryX=0;entryY=0.25;entryDx=0;entryDy=0;exitPerimeter=0;" edge="1" parent="1" source="Dx_g4YQoMk166fqY_A1X-7" target="0tgganqTkuuFNSE_xB90-1">
          <mxGeometry relative="1" as="geometry">
            <mxPoint x="-120" y="-40" as="sourcePoint" />
            <mxPoint x="30" y="-219" as="targetPoint" />
          </mxGeometry>
        </mxCell>
        <mxCell id="0tgganqTkuuFNSE_xB90-5" style="edgeStyle=none;curved=1;rounded=0;orthogonalLoop=1;jettySize=auto;html=1;exitX=0.974;exitY=0.095;exitDx=0;exitDy=0;fontSize=12;startSize=8;endSize=8;entryX=0;entryY=0.5;entryDx=0;entryDy=0;exitPerimeter=0;" edge="1" parent="1" source="Dx_g4YQoMk166fqY_A1X-7" target="Dx_g4YQoMk166fqY_A1X-12">
          <mxGeometry relative="1" as="geometry">
            <mxPoint x="-83" y="-42" as="sourcePoint" />
            <mxPoint x="60" y="-156" as="targetPoint" />
          </mxGeometry>
        </mxCell>
        <mxCell id="0tgganqTkuuFNSE_xB90-6" style="edgeStyle=none;curved=1;rounded=0;orthogonalLoop=1;jettySize=auto;html=1;exitX=1;exitY=1;exitDx=0;exitDy=0;fontSize=12;startSize=8;endSize=8;entryX=0;entryY=0.5;entryDx=0;entryDy=0;" edge="1" parent="1" source="Dx_g4YQoMk166fqY_A1X-7" target="0tgganqTkuuFNSE_xB90-2">
          <mxGeometry relative="1" as="geometry">
            <mxPoint x="-40" y="-41" as="sourcePoint" />
            <mxPoint x="65" y="-52" as="targetPoint" />
          </mxGeometry>
        </mxCell>
      </root>
    </mxGraphModel>
  </diagram>
  <diagram id="EozS6Jc8bV9zxUXPIulR" name="Diagramme de séquence">
    <mxGraphModel dx="17036" dy="9056" grid="1" gridSize="10" guides="1" tooltips="1" connect="1" arrows="1" fold="1" page="0" pageScale="1" pageWidth="827" pageHeight="1169" math="0" shadow="0">
      <root>
        <mxCell id="0" />
        <mxCell id="1" parent="0" />
        <mxCell id="LEPm7LWHMOh5ln5SLLox-1" value="Le dirigeant" style="shape=umlLifeline;perimeter=lifelinePerimeter;whiteSpace=wrap;html=1;container=0;dropTarget=0;collapsible=0;recursiveResize=0;outlineConnect=0;portConstraint=eastwest;newEdgeStyle={&quot;edgeStyle&quot;:&quot;elbowEdgeStyle&quot;,&quot;elbow&quot;:&quot;vertical&quot;,&quot;curved&quot;:0,&quot;rounded&quot;:0};fillColor=#0050ef;fontColor=#ffffff;strokeColor=#001DBC;" parent="1" vertex="1">
          <mxGeometry x="-15820" y="-8180" width="100" height="1070" as="geometry" />
        </mxCell>
        <mxCell id="LEPm7LWHMOh5ln5SLLox-2" value="" style="html=1;points=[];perimeter=orthogonalPerimeter;outlineConnect=0;targetShapes=umlLifeline;portConstraint=eastwest;newEdgeStyle={&quot;edgeStyle&quot;:&quot;elbowEdgeStyle&quot;,&quot;elbow&quot;:&quot;vertical&quot;,&quot;curved&quot;:0,&quot;rounded&quot;:0};" parent="LEPm7LWHMOh5ln5SLLox-1" vertex="1">
          <mxGeometry x="45" y="70" width="10" height="350" as="geometry" />
        </mxCell>
        <mxCell id="LEPm7LWHMOh5ln5SLLox-3" value="Connexion/inscription" style="html=1;verticalAlign=bottom;startArrow=oval;endArrow=block;startSize=8;edgeStyle=elbowEdgeStyle;elbow=vertical;curved=0;rounded=0;" parent="LEPm7LWHMOh5ln5SLLox-1" target="LEPm7LWHMOh5ln5SLLox-2" edge="1">
          <mxGeometry relative="1" as="geometry">
            <mxPoint x="-90" y="70" as="sourcePoint" />
          </mxGeometry>
        </mxCell>
        <mxCell id="LEPm7LWHMOh5ln5SLLox-4" value="" style="html=1;points=[];perimeter=orthogonalPerimeter;outlineConnect=0;targetShapes=umlLifeline;portConstraint=eastwest;newEdgeStyle={&quot;edgeStyle&quot;:&quot;elbowEdgeStyle&quot;,&quot;elbow&quot;:&quot;vertical&quot;,&quot;curved&quot;:0,&quot;rounded&quot;:0};" parent="LEPm7LWHMOh5ln5SLLox-1" vertex="1">
          <mxGeometry x="50" y="120" width="10" height="80" as="geometry" />
        </mxCell>
        <mxCell id="LEPm7LWHMOh5ln5SLLox-5" value="" style="html=1;points=[];perimeter=orthogonalPerimeter;outlineConnect=0;targetShapes=umlLifeline;portConstraint=eastwest;newEdgeStyle={&quot;edgeStyle&quot;:&quot;elbowEdgeStyle&quot;,&quot;elbow&quot;:&quot;vertical&quot;,&quot;curved&quot;:0,&quot;rounded&quot;:0};" parent="LEPm7LWHMOh5ln5SLLox-1" vertex="1">
          <mxGeometry x="45" y="440" width="10" height="80" as="geometry" />
        </mxCell>
        <mxCell id="LEPm7LWHMOh5ln5SLLox-6" value="" style="html=1;points=[];perimeter=orthogonalPerimeter;outlineConnect=0;targetShapes=umlLifeline;portConstraint=eastwest;newEdgeStyle={&quot;edgeStyle&quot;:&quot;elbowEdgeStyle&quot;,&quot;elbow&quot;:&quot;vertical&quot;,&quot;curved&quot;:0,&quot;rounded&quot;:0};" parent="LEPm7LWHMOh5ln5SLLox-1" vertex="1">
          <mxGeometry x="45" y="530" width="10" height="80" as="geometry" />
        </mxCell>
        <mxCell id="LEPm7LWHMOh5ln5SLLox-7" value="" style="html=1;points=[];perimeter=orthogonalPerimeter;outlineConnect=0;targetShapes=umlLifeline;portConstraint=eastwest;newEdgeStyle={&quot;edgeStyle&quot;:&quot;elbowEdgeStyle&quot;,&quot;elbow&quot;:&quot;vertical&quot;,&quot;curved&quot;:0,&quot;rounded&quot;:0};" parent="LEPm7LWHMOh5ln5SLLox-1" vertex="1">
          <mxGeometry x="45" y="630" width="10" height="80" as="geometry" />
        </mxCell>
        <mxCell id="LEPm7LWHMOh5ln5SLLox-8" value="" style="html=1;points=[];perimeter=orthogonalPerimeter;outlineConnect=0;targetShapes=umlLifeline;portConstraint=eastwest;newEdgeStyle={&quot;edgeStyle&quot;:&quot;elbowEdgeStyle&quot;,&quot;elbow&quot;:&quot;vertical&quot;,&quot;curved&quot;:0,&quot;rounded&quot;:0};" parent="LEPm7LWHMOh5ln5SLLox-1" vertex="1">
          <mxGeometry x="45" y="800" width="10" height="80" as="geometry" />
        </mxCell>
        <mxCell id="9uj5MyrgQAQIMYtBXNOF-1" value="Systeme forum&lt;div&gt;&lt;br&gt;&lt;/div&gt;" style="shape=umlLifeline;perimeter=lifelinePerimeter;whiteSpace=wrap;html=1;container=0;dropTarget=0;collapsible=0;recursiveResize=0;outlineConnect=0;portConstraint=eastwest;newEdgeStyle={&quot;edgeStyle&quot;:&quot;elbowEdgeStyle&quot;,&quot;elbow&quot;:&quot;vertical&quot;,&quot;curved&quot;:0,&quot;rounded&quot;:0};fillColor=#0050ef;fontColor=#ffffff;strokeColor=#001DBC;" vertex="1" parent="1">
          <mxGeometry x="-15380" y="-8180" width="100" height="1070" as="geometry" />
        </mxCell>
        <mxCell id="9uj5MyrgQAQIMYtBXNOF-2" value="" style="html=1;points=[];perimeter=orthogonalPerimeter;outlineConnect=0;targetShapes=umlLifeline;portConstraint=eastwest;newEdgeStyle={&quot;edgeStyle&quot;:&quot;elbowEdgeStyle&quot;,&quot;elbow&quot;:&quot;vertical&quot;,&quot;curved&quot;:0,&quot;rounded&quot;:0};" vertex="1" parent="9uj5MyrgQAQIMYtBXNOF-1">
          <mxGeometry x="45" y="70" width="10" height="350" as="geometry" />
        </mxCell>
        <mxCell id="9uj5MyrgQAQIMYtBXNOF-4" value="" style="html=1;points=[];perimeter=orthogonalPerimeter;outlineConnect=0;targetShapes=umlLifeline;portConstraint=eastwest;newEdgeStyle={&quot;edgeStyle&quot;:&quot;elbowEdgeStyle&quot;,&quot;elbow&quot;:&quot;vertical&quot;,&quot;curved&quot;:0,&quot;rounded&quot;:0};" vertex="1" parent="9uj5MyrgQAQIMYtBXNOF-1">
          <mxGeometry x="50" y="120" width="10" height="80" as="geometry" />
        </mxCell>
        <mxCell id="9uj5MyrgQAQIMYtBXNOF-5" value="" style="html=1;points=[];perimeter=orthogonalPerimeter;outlineConnect=0;targetShapes=umlLifeline;portConstraint=eastwest;newEdgeStyle={&quot;edgeStyle&quot;:&quot;elbowEdgeStyle&quot;,&quot;elbow&quot;:&quot;vertical&quot;,&quot;curved&quot;:0,&quot;rounded&quot;:0};" vertex="1" parent="9uj5MyrgQAQIMYtBXNOF-1">
          <mxGeometry x="45" y="440" width="10" height="80" as="geometry" />
        </mxCell>
        <mxCell id="9uj5MyrgQAQIMYtBXNOF-6" value="" style="html=1;points=[];perimeter=orthogonalPerimeter;outlineConnect=0;targetShapes=umlLifeline;portConstraint=eastwest;newEdgeStyle={&quot;edgeStyle&quot;:&quot;elbowEdgeStyle&quot;,&quot;elbow&quot;:&quot;vertical&quot;,&quot;curved&quot;:0,&quot;rounded&quot;:0};" vertex="1" parent="9uj5MyrgQAQIMYtBXNOF-1">
          <mxGeometry x="45" y="530" width="10" height="80" as="geometry" />
        </mxCell>
        <mxCell id="9uj5MyrgQAQIMYtBXNOF-7" value="" style="html=1;points=[];perimeter=orthogonalPerimeter;outlineConnect=0;targetShapes=umlLifeline;portConstraint=eastwest;newEdgeStyle={&quot;edgeStyle&quot;:&quot;elbowEdgeStyle&quot;,&quot;elbow&quot;:&quot;vertical&quot;,&quot;curved&quot;:0,&quot;rounded&quot;:0};" vertex="1" parent="9uj5MyrgQAQIMYtBXNOF-1">
          <mxGeometry x="45" y="630" width="10" height="80" as="geometry" />
        </mxCell>
        <mxCell id="9uj5MyrgQAQIMYtBXNOF-8" value="" style="html=1;points=[];perimeter=orthogonalPerimeter;outlineConnect=0;targetShapes=umlLifeline;portConstraint=eastwest;newEdgeStyle={&quot;edgeStyle&quot;:&quot;elbowEdgeStyle&quot;,&quot;elbow&quot;:&quot;vertical&quot;,&quot;curved&quot;:0,&quot;rounded&quot;:0};" vertex="1" parent="9uj5MyrgQAQIMYtBXNOF-1">
          <mxGeometry x="45" y="800" width="10" height="80" as="geometry" />
        </mxCell>
        <mxCell id="9uj5MyrgQAQIMYtBXNOF-9" value="" style="endArrow=classic;html=1;rounded=0;fontSize=12;startSize=8;endSize=8;curved=1;" edge="1" parent="1" source="LEPm7LWHMOh5ln5SLLox-4" target="9uj5MyrgQAQIMYtBXNOF-1">
          <mxGeometry width="50" height="50" relative="1" as="geometry">
            <mxPoint x="-15500" y="-7950" as="sourcePoint" />
            <mxPoint x="-15450" y="-8000" as="targetPoint" />
          </mxGeometry>
        </mxCell>
        <mxCell id="9uj5MyrgQAQIMYtBXNOF-10" value="" style="endArrow=classic;html=1;rounded=0;fontSize=12;startSize=8;endSize=8;curved=1;" edge="1" parent="1" source="9uj5MyrgQAQIMYtBXNOF-1" target="LEPm7LWHMOh5ln5SLLox-4">
          <mxGeometry width="50" height="50" relative="1" as="geometry">
            <mxPoint x="-15500" y="-7950" as="sourcePoint" />
            <mxPoint x="-15450" y="-8000" as="targetPoint" />
          </mxGeometry>
        </mxCell>
        <mxCell id="9uj5MyrgQAQIMYtBXNOF-11" value="" style="endArrow=classic;html=1;rounded=0;fontSize=12;startSize=8;endSize=8;curved=1;" edge="1" parent="1" target="9uj5MyrgQAQIMYtBXNOF-1">
          <mxGeometry width="50" height="50" relative="1" as="geometry">
            <mxPoint x="-15770" y="-7900" as="sourcePoint" />
            <mxPoint x="-15455" y="-7900" as="targetPoint" />
          </mxGeometry>
        </mxCell>
        <mxCell id="9uj5MyrgQAQIMYtBXNOF-12" value="&lt;div&gt;Gestionnaire de réunion&lt;/div&gt;" style="shape=umlLifeline;perimeter=lifelinePerimeter;whiteSpace=wrap;html=1;container=0;dropTarget=0;collapsible=0;recursiveResize=0;outlineConnect=0;portConstraint=eastwest;newEdgeStyle={&quot;edgeStyle&quot;:&quot;elbowEdgeStyle&quot;,&quot;elbow&quot;:&quot;vertical&quot;,&quot;curved&quot;:0,&quot;rounded&quot;:0};fillColor=#0050ef;fontColor=#ffffff;strokeColor=#001DBC;" vertex="1" parent="1">
          <mxGeometry x="-15010" y="-8130" width="100" height="1070" as="geometry" />
        </mxCell>
        <mxCell id="9uj5MyrgQAQIMYtBXNOF-13" value="" style="html=1;points=[];perimeter=orthogonalPerimeter;outlineConnect=0;targetShapes=umlLifeline;portConstraint=eastwest;newEdgeStyle={&quot;edgeStyle&quot;:&quot;elbowEdgeStyle&quot;,&quot;elbow&quot;:&quot;vertical&quot;,&quot;curved&quot;:0,&quot;rounded&quot;:0};" vertex="1" parent="9uj5MyrgQAQIMYtBXNOF-12">
          <mxGeometry x="45" y="70" width="10" height="350" as="geometry" />
        </mxCell>
        <mxCell id="9uj5MyrgQAQIMYtBXNOF-14" value="" style="html=1;points=[];perimeter=orthogonalPerimeter;outlineConnect=0;targetShapes=umlLifeline;portConstraint=eastwest;newEdgeStyle={&quot;edgeStyle&quot;:&quot;elbowEdgeStyle&quot;,&quot;elbow&quot;:&quot;vertical&quot;,&quot;curved&quot;:0,&quot;rounded&quot;:0};" vertex="1" parent="9uj5MyrgQAQIMYtBXNOF-12">
          <mxGeometry x="50" y="120" width="10" height="80" as="geometry" />
        </mxCell>
        <mxCell id="9uj5MyrgQAQIMYtBXNOF-15" value="" style="html=1;points=[];perimeter=orthogonalPerimeter;outlineConnect=0;targetShapes=umlLifeline;portConstraint=eastwest;newEdgeStyle={&quot;edgeStyle&quot;:&quot;elbowEdgeStyle&quot;,&quot;elbow&quot;:&quot;vertical&quot;,&quot;curved&quot;:0,&quot;rounded&quot;:0};" vertex="1" parent="9uj5MyrgQAQIMYtBXNOF-12">
          <mxGeometry x="45" y="440" width="10" height="80" as="geometry" />
        </mxCell>
        <mxCell id="9uj5MyrgQAQIMYtBXNOF-16" value="" style="html=1;points=[];perimeter=orthogonalPerimeter;outlineConnect=0;targetShapes=umlLifeline;portConstraint=eastwest;newEdgeStyle={&quot;edgeStyle&quot;:&quot;elbowEdgeStyle&quot;,&quot;elbow&quot;:&quot;vertical&quot;,&quot;curved&quot;:0,&quot;rounded&quot;:0};" vertex="1" parent="9uj5MyrgQAQIMYtBXNOF-12">
          <mxGeometry x="45" y="530" width="10" height="80" as="geometry" />
        </mxCell>
        <mxCell id="9uj5MyrgQAQIMYtBXNOF-17" value="" style="html=1;points=[];perimeter=orthogonalPerimeter;outlineConnect=0;targetShapes=umlLifeline;portConstraint=eastwest;newEdgeStyle={&quot;edgeStyle&quot;:&quot;elbowEdgeStyle&quot;,&quot;elbow&quot;:&quot;vertical&quot;,&quot;curved&quot;:0,&quot;rounded&quot;:0};" vertex="1" parent="9uj5MyrgQAQIMYtBXNOF-12">
          <mxGeometry x="45" y="630" width="10" height="80" as="geometry" />
        </mxCell>
        <mxCell id="9uj5MyrgQAQIMYtBXNOF-18" value="" style="html=1;points=[];perimeter=orthogonalPerimeter;outlineConnect=0;targetShapes=umlLifeline;portConstraint=eastwest;newEdgeStyle={&quot;edgeStyle&quot;:&quot;elbowEdgeStyle&quot;,&quot;elbow&quot;:&quot;vertical&quot;,&quot;curved&quot;:0,&quot;rounded&quot;:0};" vertex="1" parent="9uj5MyrgQAQIMYtBXNOF-12">
          <mxGeometry x="45" y="800" width="10" height="80" as="geometry" />
        </mxCell>
        <mxCell id="9uj5MyrgQAQIMYtBXNOF-19" value="" style="endArrow=classic;html=1;rounded=0;fontSize=12;startSize=8;endSize=8;curved=1;" edge="1" parent="1">
          <mxGeometry width="50" height="50" relative="1" as="geometry">
            <mxPoint x="-15330.5" y="-7840" as="sourcePoint" />
            <mxPoint x="-14965" y="-7840" as="targetPoint" />
          </mxGeometry>
        </mxCell>
        <mxCell id="9uj5MyrgQAQIMYtBXNOF-20" value="" style="endArrow=classic;html=1;rounded=0;fontSize=12;startSize=8;endSize=8;curved=1;" edge="1" parent="1">
          <mxGeometry width="50" height="50" relative="1" as="geometry">
            <mxPoint x="-14960.5" y="-7790" as="sourcePoint" />
            <mxPoint x="-15325" y="-7790" as="targetPoint" />
          </mxGeometry>
        </mxCell>
        <mxCell id="9uj5MyrgQAQIMYtBXNOF-21" value="" style="endArrow=classic;html=1;rounded=0;fontSize=12;startSize=8;endSize=8;curved=1;" edge="1" parent="1" source="9uj5MyrgQAQIMYtBXNOF-1">
          <mxGeometry width="50" height="50" relative="1" as="geometry">
            <mxPoint x="-15405.5" y="-7680" as="sourcePoint" />
            <mxPoint x="-15770" y="-7680" as="targetPoint" />
          </mxGeometry>
        </mxCell>
        <mxCell id="9uj5MyrgQAQIMYtBXNOF-23" value="&lt;font style=&quot;font-size: 11px;&quot;&gt;Accéder au Forum&lt;/font&gt;" style="text;html=1;align=center;verticalAlign=middle;whiteSpace=wrap;rounded=0;fontSize=16;" vertex="1" parent="1">
          <mxGeometry x="-15600" y="-8050" width="150" height="30" as="geometry" />
        </mxCell>
        <mxCell id="9uj5MyrgQAQIMYtBXNOF-24" value="&lt;font style=&quot;font-size: 11px;&quot;&gt;Forum affiché&lt;/font&gt;" style="text;html=1;align=center;verticalAlign=middle;whiteSpace=wrap;rounded=0;fontSize=16;" vertex="1" parent="1">
          <mxGeometry x="-15600" y="-8010" width="150" height="30" as="geometry" />
        </mxCell>
        <mxCell id="9uj5MyrgQAQIMYtBXNOF-25" value="&lt;font style=&quot;font-size: 11px;&quot;&gt;Créer une Réunion&lt;/font&gt;" style="text;html=1;align=center;verticalAlign=middle;whiteSpace=wrap;rounded=0;fontSize=16;" vertex="1" parent="1">
          <mxGeometry x="-15600" y="-7930" width="150" height="30" as="geometry" />
        </mxCell>
        <mxCell id="9uj5MyrgQAQIMYtBXNOF-26" value="&lt;font style=&quot;font-size: 11px;&quot;&gt;Créer Réunion&lt;/font&gt;" style="text;html=1;align=center;verticalAlign=middle;whiteSpace=wrap;rounded=0;fontSize=16;" vertex="1" parent="1">
          <mxGeometry x="-15220" y="-7870" width="150" height="30" as="geometry" />
        </mxCell>
        <mxCell id="9uj5MyrgQAQIMYtBXNOF-27" value="&lt;span style=&quot;font-size: 11px;&quot;&gt;Confirmation&amp;nbsp;&lt;/span&gt;" style="text;html=1;align=center;verticalAlign=middle;whiteSpace=wrap;rounded=0;fontSize=16;" vertex="1" parent="1">
          <mxGeometry x="-15210" y="-7820" width="150" height="30" as="geometry" />
        </mxCell>
        <mxCell id="9uj5MyrgQAQIMYtBXNOF-28" value="&lt;span style=&quot;font-size: 11px;&quot;&gt;Réunion crée&lt;/span&gt;" style="text;html=1;align=center;verticalAlign=middle;whiteSpace=wrap;rounded=0;fontSize=16;" vertex="1" parent="1">
          <mxGeometry x="-15600" y="-7710" width="150" height="30" as="geometry" />
        </mxCell>
      </root>
    </mxGraphModel>
  </diagram>
</mxfile>
